<svg width="18" height="10" viewBox="0 0 18 10" fill="none" xmlns="http://www.w3.org/2000/svg">
<path d="M16.2929 9.70711C16.6834 10.0976 17.3166 10.0976 17.7071 9.70711C18.0976 9.31658 18.0976 8.68342 17.7071 8.29289L16.2929 9.70711ZM9 0.999999L9.70711 0.292893C9.31658 -0.0976321 8.68342 -0.0976322 8.29289 0.292893L9 0.999999ZM0.292893 8.29289C-0.0976314 8.68342 -0.0976315 9.31658 0.292892 9.70711C0.683418 10.0976 1.31658 10.0976 1.70711 9.70711L0.292893 8.29289ZM17.7071 8.29289L9.70711 0.292893L8.29289 1.70711L16.2929 9.70711L17.7071 8.29289ZM8.29289 0.292893L0.292893 8.29289L1.70711 9.70711L9.70711 1.70711L8.29289 0.292893Z" fill="#000000"/>
</svg>
